<svg width="12" height="12" viewBox="0 0 12 12" fill="none" xmlns="http://www.w3.org/2000/svg">
  <path
    d="M12 3.75C12 3.3375 11.6625 3 11.25 3H9V0.75C9 0.3375 8.6625 0 8.25 0C7.8375 0 7.5 0.3375 7.5 0.75V3H4.5V0.75C4.5 0.3375 4.1625 0 3.75 0C3.3375 0 3 0.3375 3 0.75V3H0.75C0.3375 3 0 3.3375 0 3.75C0 4.1625 0.3375 4.5 0.75 4.5H3V7.5H0.75C0.3375 7.5 0 7.8375 0 8.25C0 8.6625 0.3375 9 0.75 9H3V11.25C3 11.6625 3.3375 12 3.75 12C4.1625 12 4.5 11.6625 4.5 11.25V9H7.5V11.25C7.5 11.6625 7.8375 12 8.25 12C8.6625 12 9 11.6625 9 11.25V9H11.25C11.6625 9 12 8.6625 12 8.25C12 7.8375 11.6625 7.5 11.25 7.5H9V4.5H11.25C11.6625 4.5 12 4.1625 12 3.75ZM7.5 7.5H4.5V4.5H7.5V7.5Z"
    fill="#4A5662" />
</svg>